<svg width="54" height="52" viewBox="0 0 54 52" fill="none" xmlns="http://www.w3.org/2000/svg">
<circle cx="11.1748" cy="10.5" r="10.5" fill="#81AFE6"/>
<path d="M37.0687 34.1499C35.884 34.1499 34.9203 33.3059 34.9203 32.2684C34.9203 31.2309 35.884 30.3868 37.0687 30.3868C38.2534 30.3868 39.2171 31.2309 39.2171 32.2684C39.2171 32.8141 39.6544 33.2566 40.1937 33.2566C40.7329 33.2566 41.1702 32.8141 41.1702 32.2684C41.1702 30.4576 39.8368 28.9351 38.0452 28.5219V28.008C38.0452 27.4623 37.6079 27.0198 37.0687 27.0198C36.5294 27.0198 36.0921 27.4623 36.0921 28.008V28.5219C34.3005 28.9351 32.9671 30.4576 32.9671 32.2684C32.9671 34.3956 34.8071 36.1262 37.0687 36.1262C38.2534 36.1262 39.2171 36.9703 39.2171 38.0078C39.2171 39.0454 38.2534 39.8895 37.0687 39.8895C35.884 39.8895 34.9203 39.0454 34.9203 38.0078C34.9203 37.4622 34.483 37.0197 33.9437 37.0197C33.4044 37.0197 32.9671 37.4622 32.9671 38.0078C32.9671 39.8186 34.3005 41.3411 36.0921 41.7544V42.1812C36.0921 42.7269 36.5294 43.1694 37.0687 43.1694C37.6079 43.1694 38.0452 42.7269 38.0452 42.1812V41.7544C39.8368 41.3411 41.1702 39.8186 41.1702 38.0078C41.1702 35.8806 39.3303 34.1499 37.0687 34.1499Z" fill="black"/>
<path d="M47.7648 28.2723C46.4891 26.2609 44.6918 24.6514 42.5673 23.618C42.0811 23.3815 41.4976 23.5886 41.264 24.0805C41.0303 24.5724 41.2349 25.1627 41.721 25.3992C45.4233 27.2 47.8153 31.0477 47.8153 35.2016C47.8153 36.9791 47.3823 38.7418 46.5633 40.2995C46.31 40.7812 46.4905 41.3797 46.9667 41.636C47.1128 41.7146 47.2698 41.752 47.4245 41.752C47.7739 41.752 48.1119 41.5617 48.2875 41.2278C49.2564 39.3855 49.7685 37.3016 49.7685 35.2016C49.7685 32.7352 49.0756 30.3391 47.7648 28.2723Z" fill="black"/>
<path d="M38.6037 22.3559L38.538 22.3558C37.9988 22.3558 37.5615 22.7982 37.5615 23.3439C37.5615 23.8897 37.9988 24.3321 38.538 24.3321L38.5946 24.3322C38.5961 24.3322 38.5976 24.3322 38.5993 24.3322C39.1365 24.3322 39.5732 23.8928 39.5757 23.3487C39.5782 22.8029 39.143 22.3585 38.6037 22.3559Z" fill="black"/>
<path d="M32.4254 45.0041C28.7233 43.2032 26.3312 39.3555 26.3312 35.2016C26.3312 33.4241 26.7642 31.6614 27.5833 30.1037C27.8366 29.622 27.656 29.0236 27.1798 28.7672C26.7039 28.5109 26.1123 28.6936 25.859 29.1754C24.8902 31.0178 24.3781 33.1016 24.3781 35.2016C24.3781 37.668 25.071 40.0641 26.3818 42.1309C27.6575 44.1423 29.4547 45.7518 31.5792 46.7853C31.7157 46.8517 31.8598 46.883 32.0017 46.883C32.3654 46.883 32.7144 46.6766 32.8826 46.3228C33.1161 45.8309 32.9116 45.2405 32.4254 45.0041Z" fill="black"/>
<path d="M35.6085 46.0712L35.552 46.071C35.0102 46.07 34.5735 46.5086 34.571 47.0545C34.5685 47.6002 35.0038 48.0447 35.5431 48.0472L35.6085 48.0474C36.1478 48.0474 36.5851 47.6049 36.5851 47.0593C36.5851 46.5136 36.1478 46.0712 35.6085 46.0712Z" fill="black"/>
<path d="M41.5076 19.0126C41.3888 18.7261 41.2432 18.456 41.0738 18.2055H43.6161C46.0931 18.2055 48.1083 16.1664 48.1083 13.6601C48.1083 11.1537 46.0931 9.11461 43.6161 9.11461H35.7958C36.293 8.38319 36.5849 7.49831 36.5849 6.54545C36.5849 4.03913 34.5697 2 32.0927 2H8.16698C5.69004 2 3.6748 4.03913 3.6748 6.54545C3.6748 9.05176 5.69004 11.0909 8.16698 11.0909H15.9873C15.4901 11.8223 15.1982 12.7072 15.1982 13.6601C15.1982 14.6129 15.49 15.4978 15.9873 16.2292H13.4404C10.9635 16.2292 8.94823 18.2683 8.94823 20.7747C8.94823 22.2141 9.61366 23.4986 10.6489 24.332C9.61366 25.1654 8.94823 26.4499 8.94823 27.8893C8.94823 29.3287 9.61366 30.6132 10.6489 31.4466C9.61366 32.28 8.94823 33.5645 8.94823 35.0039C8.94823 36.4433 9.61366 37.7278 10.6489 38.5612C9.61366 39.3946 8.94823 40.6791 8.94823 42.1185C8.94823 44.6248 10.9635 46.6639 13.4404 46.6639H24.9492C27.981 49.9453 32.2941 52 37.0733 52C46.2274 52 53.6748 44.4642 53.6748 35.2016C53.6748 27.4924 48.5156 20.9805 41.5076 19.0126ZM43.6161 11.0909C45.0162 11.0909 46.1552 12.2435 46.1552 13.6601C46.1552 15.0767 45.0162 16.2292 43.6161 16.2292H19.6904C18.2903 16.2292 17.1513 15.0767 17.1513 13.6601C17.1513 12.2435 18.2903 11.0909 19.6904 11.0909H43.6161ZM8.16698 9.11461C6.76689 9.11461 5.62793 7.96204 5.62793 6.54545C5.62793 5.12885 6.76689 3.97628 8.16698 3.97628H32.0927C33.4928 3.97628 34.6318 5.12885 34.6318 6.54545C34.6318 7.96204 33.4928 9.11461 32.0927 9.11461H8.16698ZM13.4404 18.2055H37.3661C37.7595 18.2055 38.1362 18.298 38.4741 18.4636C38.0121 18.4244 37.5452 18.4032 37.0733 18.4032C32.4888 18.4032 28.3326 20.2934 25.3253 23.3438H13.4404C12.0404 23.3438 10.9014 22.1913 10.9014 20.7747C10.9014 19.3581 12.0404 18.2055 13.4404 18.2055ZM13.4404 25.3201H23.6567C22.5481 26.857 21.691 28.5904 21.1466 30.4584H13.4404C12.0403 30.4584 10.9014 29.306 10.9014 27.8893C10.9014 26.4727 12.0403 25.3201 13.4404 25.3201ZM13.4404 32.4347H20.6982C20.5501 33.3352 20.4717 34.2592 20.4717 35.2016C20.4717 36.0066 20.5293 36.7981 20.638 37.5731H13.4404C12.0403 37.5731 10.9014 36.4206 10.9014 35.0039C10.9014 33.5872 12.0403 32.4347 13.4404 32.4347ZM13.4404 44.6877C12.0403 44.6877 10.9014 43.5352 10.9014 42.1185C10.9014 40.7018 12.0403 39.5493 13.4404 39.5493H21.0367C21.5295 41.4083 22.3299 43.1408 23.3797 44.6877H13.4404ZM37.0733 50.0237C28.9961 50.0237 22.4249 43.3745 22.4249 35.2016C22.4249 27.0287 28.9961 20.3795 37.0733 20.3795C45.1504 20.3795 51.7217 27.0287 51.7217 35.2016C51.7217 43.3745 45.1504 50.0237 37.0733 50.0237Z" fill="black"/>
</svg>
