<svg width="72" height="71" viewBox="0 0 72 71" fill="none" xmlns="http://www.w3.org/2000/svg">
<circle cx="13.1748" cy="29.5" r="10.5" fill="#BED734"/>
<g clip-path="url(#clip0)">
<path d="M50.8641 53.8974C50.7841 52.8482 49.9503 52.0144 48.901 51.9344C47.7273 52.0238 46.8486 53.0476 46.9379 54.2211C47.0178 55.2703 47.8516 56.1041 48.901 56.1842C50.0746 56.0949 50.9534 55.0709 50.8641 53.8974Z" fill="black"/>
<path d="M56.0623 52.0743C55.9824 51.0251 55.1486 50.1913 54.0992 50.1113C52.9256 50.2007 52.0468 51.2245 52.1361 52.398C52.216 53.4472 53.0498 54.281 54.0992 54.3611C55.2728 54.2718 56.1516 53.2478 56.0623 52.0743Z" fill="black"/>
<path d="M71.6651 19.6604V19.5619C71.6382 19.4934 71.6052 19.4275 71.5666 19.3648L71.4927 19.2663L71.3448 19.1061L71.2586 19.0322L71.0985 18.9583H71.0369L44.2816 8.01966C43.9853 7.89986 43.6539 7.89986 43.3577 8.01966L16.6639 18.7735H16.6024L16.4422 18.8474L16.356 18.9213L16.2082 19.0815L16.1343 19.18C16.0956 19.2427 16.0627 19.3086 16.0357 19.3771V19.4757C16.0228 19.5779 16.0228 19.6814 16.0357 19.7836V29.6383H1.90663C1.22636 29.6383 0.674805 30.1898 0.674805 30.8701C0.674805 31.5504 1.22636 32.1019 1.90663 32.1019V32.262H15.8879V36.4749H11.0961C10.4158 36.4749 9.86425 37.0265 9.86425 37.7067C9.86425 38.387 10.4158 38.9386 11.0961 38.9386H15.8879V43.1514H4.53043C3.85015 43.1514 3.2986 43.703 3.2986 44.3832C3.2986 45.0635 3.85015 45.6151 4.53043 45.6151H15.8879V50.7641C15.8904 51.2615 16.1917 51.7085 16.6516 51.8974L43.3577 62.9839C43.4912 63.0368 43.633 63.0659 43.7765 63.0701C43.92 63.0659 44.0618 63.0368 44.1953 62.9839L70.9014 51.8974C71.3613 51.7085 71.6626 51.2615 71.6651 50.7641V19.9684C71.678 19.8662 71.678 19.7627 71.6651 19.6604ZM43.8135 10.5203L53.9391 14.573L30.9039 24.3168L20.3717 19.9314L43.8135 10.5203ZM42.5447 60.0151L18.3516 49.9388V45.6028H23.4636C24.1439 45.6028 24.6955 45.0512 24.6955 44.3709C24.6955 43.6906 24.1439 43.1391 23.4636 43.1391H18.3516V38.9262H30.0539C30.7342 38.9262 31.2858 38.3747 31.2858 37.6944C31.2858 37.0141 30.7342 36.4626 30.0539 36.4626H18.3516V32.262H20.8152C21.4955 32.262 22.047 31.7105 22.047 31.0302C22.047 30.3499 21.4955 29.7984 20.8152 29.7984H18.3516V21.7669L27.7627 25.6594L42.5447 31.8186V60.0151ZM43.8258 29.7368L34.0943 25.6594L57.1542 15.8787L67.2428 19.9438L52.5471 26.1029L43.8258 29.7368ZM45.0453 60.0151V31.8186L51.9805 28.9361L69.2261 21.7422L69.2877 49.9388L45.0453 60.0151Z" fill="black"/>
</g>
<defs>
<clipPath id="clip0">
<rect width="71" height="71" fill="white" transform="translate(0.674805)"/>
</clipPath>
</defs>
</svg>
