<svg width="65" height="58" viewBox="0 0 65 58" fill="none" xmlns="http://www.w3.org/2000/svg">
<circle cx="11.1748" cy="18.5" r="10.5" fill="#F35A9B"/>
<path d="M22.0811 40.7812C22.5813 40.7812 22.9873 41.1873 22.9873 41.6875H24.7998C24.7998 40.1886 23.58 38.9688 22.0811 38.9688V37.1562H20.2686V38.9688H17.5498V41.6875C17.5498 43.1864 18.7696 44.4062 20.2686 44.4062H22.0811C22.5813 44.4062 22.9873 44.8123 22.9873 45.3125V46.2188H20.2686C19.7683 46.2188 19.3623 45.8127 19.3623 45.3125H17.5498C17.5498 46.8114 18.7696 48.0312 20.2686 48.0312V49.8438H22.0811V48.0312H24.7998V45.3125C24.7998 43.8136 23.58 42.5938 22.0811 42.5938H20.2686C19.7683 42.5938 19.3623 42.1877 19.3623 41.6875V40.7812H22.0811Z" fill="black"/>
<path d="M21.1748 33.5312C15.6784 33.5312 11.2061 38.0036 11.2061 43.5C11.2061 48.9964 15.6784 53.4688 21.1748 53.4688C26.6712 53.4688 31.1436 48.9964 31.1436 43.5C31.1436 38.0036 26.6712 33.5312 21.1748 33.5312ZM21.1748 51.6562C16.6771 51.6562 13.0186 47.9977 13.0186 43.5C13.0186 39.0023 16.6771 35.3438 21.1748 35.3438C25.6725 35.3438 29.3311 39.0023 29.3311 43.5C29.3311 47.9977 25.6725 51.6562 21.1748 51.6562Z" fill="black"/>
<path d="M56.5186 38.0625V27.1875H58.3311V21.3812C61.6516 19.4463 63.7686 15.7397 63.7686 11.7812C63.7686 5.78459 58.8902 0.90625 52.8936 0.90625C48.8789 0.90625 45.3735 3.09847 43.4894 6.34375H18.9871L7.58105 17.7498V57.0938H53.7998V50.0884L60.8151 38.0625H56.5186ZM57.6595 39.875L52.8936 48.0457L48.1276 39.875H51.0811V27.1875H54.7061V39.875H57.6595ZM49.2686 25.375V21.75H56.5186V25.375H49.2686ZM52.8936 13.5938C51.894 13.5938 51.0811 12.7808 51.0811 11.7812C51.0811 10.7817 51.894 9.96875 52.8936 9.96875C53.8932 9.96875 54.7061 10.7817 54.7061 11.7812C54.7061 12.7808 53.8932 13.5938 52.8936 13.5938ZM52.8936 2.71875C57.8906 2.71875 61.9561 6.78419 61.9561 11.7812C61.9561 15.1933 60.0819 18.367 57.1747 19.9375H53.7998V15.2776C55.3595 14.8725 56.5186 13.466 56.5186 11.7812C56.5186 9.78206 54.8927 8.15625 52.8936 8.15625C50.8944 8.15625 49.2686 9.78206 49.2686 11.7812C49.2686 13.466 50.4276 14.8725 51.9873 15.2776V19.9375H48.6124C45.7052 18.367 43.8311 15.1933 43.8311 11.7812C43.8311 6.78419 47.8965 2.71875 52.8936 2.71875ZM18.4561 9.43769V17.2188H10.675L18.4561 9.43769ZM9.39355 55.2812V19.0312H20.2686V8.15625H42.6529C42.2496 9.29178 42.0186 10.5089 42.0186 11.7812C42.0186 15.7397 44.1356 19.4463 47.4561 21.3812V27.1875H49.2686V38.0625H44.972L51.9873 50.0884V55.2812H9.39355Z" fill="black"/>
<path d="M32.9561 51.6562H34.7686V53.4688H32.9561V51.6562Z" fill="black"/>
<path d="M36.5811 51.6562H38.3936V53.4688H36.5811V51.6562Z" fill="black"/>
<path d="M40.2061 51.6562H42.0186V53.4688H40.2061V51.6562Z" fill="black"/>
<path d="M32.9561 48.0312H42.0186V49.8438H32.9561V48.0312Z" fill="black"/>
<path d="M32.9561 44.4062H42.0186V46.2188H32.9561V44.4062Z" fill="black"/>
<path d="M32.9561 40.7812H42.0186V42.5938H32.9561V40.7812Z" fill="black"/>
<path d="M40.2061 9.96875H22.0811V19.0312H40.2061V9.96875ZM38.3936 17.2188H23.8936V11.7812H38.3936V17.2188Z" fill="black"/>
<path d="M11.2061 20.8438H13.0186V22.6562H11.2061V20.8438Z" fill="black"/>
<path d="M14.8311 20.8438H45.6436V22.6562H14.8311V20.8438Z" fill="black"/>
<path d="M11.2061 24.4688H45.6436V26.2812H11.2061V24.4688Z" fill="black"/>
<path d="M11.2061 28.0938H34.7686V29.9062H11.2061V28.0938Z" fill="black"/>
<path d="M40.2061 28.0938H42.0186V29.9062H40.2061V28.0938Z" fill="black"/>
<path d="M43.8311 28.0938H45.6436V29.9062H43.8311V28.0938Z" fill="black"/>
<path d="M36.5811 28.0938H38.3936V29.9062H36.5811V28.0938Z" fill="black"/>
</svg>
