<svg width="22" height="23" viewBox="0 0 22 23" fill="none" xmlns="http://www.w3.org/2000/svg">
<path d="M1.6748 5.2L4.84147 1H17.5081L20.6748 5.2M1.6748 5.2V19.9C1.6748 20.457 1.89722 20.9911 2.29313 21.3849C2.68904 21.7787 3.22601 22 3.78592 22H18.5637C19.1236 22 19.6606 21.7787 20.0565 21.3849C20.4524 20.9911 20.6748 20.457 20.6748 19.9V5.2M1.6748 5.2H20.6748M15.397 9.4C15.397 10.5139 14.9522 11.5822 14.1604 12.3698C13.3685 13.1575 12.2946 13.6 11.1748 13.6C10.055 13.6 8.98106 13.1575 8.18924 12.3698C7.39742 11.5822 6.95258 10.5139 6.95258 9.4" stroke="black" stroke-width="2" stroke-linecap="round" stroke-linejoin="round"/>
</svg>
