<svg width="27" height="27" viewBox="0 0 27 27" fill="none" xmlns="http://www.w3.org/2000/svg">
<path d="M19.8678 1.50828L19.8677 1.50827C15.648 0.697249 11.3269 0.697245 7.10708 1.50825C4.23898 2.05514 2.05383 4.27705 1.50766 7.11317L1.50765 7.11324C0.69746 11.3372 0.697451 15.6626 1.50762 19.8866C2.0539 22.7575 4.27352 24.945 7.10694 25.4917L7.10715 25.4918C9.23371 25.8972 11.3605 26.1 13.4874 26.1C15.6143 26.1 17.741 25.8972 19.8676 25.4918C22.7356 24.9449 24.9207 22.7232 25.467 19.8872C26.311 15.663 26.311 11.3372 25.4671 7.11293C24.9206 4.24226 22.7011 2.055 19.8678 1.50828ZM24.0926 19.6134L24.0926 19.6136C23.6628 21.8967 21.8777 23.6521 19.594 24.1162C15.5338 24.8886 11.4403 24.8886 7.38019 24.116L7.38003 24.116C5.09931 23.6859 3.34569 21.899 2.88204 19.6128C2.11035 15.5485 2.11038 11.4509 2.88216 7.38658L2.88219 7.38642C3.31194 5.10311 5.09725 3.3477 7.38123 2.88375C9.3932 2.48096 11.4396 2.31294 13.4874 2.31294C15.5339 2.31294 17.581 2.51444 19.595 2.88403C21.8756 3.31425 23.6291 5.10108 24.0927 7.38726C24.8644 11.4515 24.8644 15.5492 24.0926 19.6134Z" fill="white" stroke="#C78D5B" stroke-width="0.2"/>
<path d="M19.33 9.77782H15.7635V9.14626C15.7635 8.2918 15.0577 7.58594 14.2032 7.58594H12.8658C12.0113 7.58594 11.3055 8.2918 11.3055 9.14626V9.77782H7.73902C7.36752 9.77782 7.07031 10.075 7.07031 10.4465C7.07031 10.818 7.36752 11.1152 7.73902 11.1152H8.22198L9.67085 18.8797C9.74515 19.214 10.0052 19.4369 10.3396 19.4369H16.7666C17.1009 19.4369 17.361 19.214 17.4353 18.8797L18.8842 11.1152H19.3671C19.7386 11.1152 20.0358 10.818 20.0358 10.4465C20.0358 10.1122 19.7015 9.77782 19.33 9.77782ZM12.6429 9.14626C12.6429 9.03481 12.7543 8.96051 12.8658 8.96051H14.2032C14.3147 8.96051 14.4261 9.03481 14.4261 9.14626V9.77782H12.6429V9.14626ZM16.1722 18.0995H10.8968L9.59655 11.1152H17.5096L16.1722 18.0995Z" fill="white"/>
<path d="M12.0096 12.1926C11.6381 12.2297 11.341 12.5269 11.3781 12.8983L11.5639 16.1298C11.601 16.5013 11.8982 16.7613 12.2324 16.7613H12.2696C12.641 16.7241 12.9382 16.427 12.901 16.0555L12.7153 12.824C12.6782 12.4526 12.381 12.1555 12.0096 12.1926Z" fill="white"/>
<path d="M14.349 12.824L14.1633 16.0555C14.1262 16.427 14.4233 16.7613 14.7947 16.7613H14.8319C15.2033 16.7613 15.5005 16.5013 15.5005 16.1298L15.6862 12.8983C15.7233 12.5269 15.4262 12.1926 15.0547 12.1926C14.6833 12.1555 14.3862 12.4526 14.349 12.824Z" fill="white"/>
</svg>
