<svg width="18" height="18" viewBox="0 0 18 18" fill="#D61A6A" xmlns="http://www.w3.org/2000/svg">
<path d="M5.15232 8.29306C6.3205 7.16006 8.35787 7.16006 9.52606 8.29306L10.255 9.00006L11.7129 7.58606L10.984 6.87906C10.0117 5.93506 8.71668 5.41406 7.33919 5.41406C5.9617 5.41406 4.66669 5.93506 3.69441 6.87906L1.5065 9.00006C0.541739 9.93878 0 11.2101 0 12.5356C0 13.861 0.541739 15.1323 1.5065 16.0711C1.98478 16.5356 2.55299 16.9039 3.17848 17.1548C3.80397 17.4057 4.47441 17.5342 5.15129 17.5331C5.82834 17.5344 6.49899 17.406 7.12468 17.1551C7.75036 16.9042 8.31873 16.5358 8.7971 16.0711L9.52606 15.3641L8.06814 13.9501L7.33919 14.6571C6.75816 15.2181 5.97167 15.533 5.1518 15.533C4.33194 15.533 3.54545 15.2181 2.96442 14.6571C2.38548 14.0938 2.06039 13.3309 2.06039 12.5356C2.06039 11.7402 2.38548 10.9773 2.96442 10.4141L5.15232 8.29306Z" fill="#D61A6A"/>
<path d="M8.79669 1.92899L8.06773 2.63599L9.52564 4.04999L10.2546 3.34299C10.8356 2.78198 11.6221 2.46702 12.442 2.46702C13.2618 2.46702 14.0483 2.78198 14.6294 3.34299C15.2083 3.90626 15.5334 4.66916 15.5334 5.46449C15.5334 6.25983 15.2083 7.02272 14.6294 7.58599L12.4415 9.70699C11.2733 10.84 9.23592 10.84 8.06773 9.70699L7.33877 8.99999L5.88086 10.414L6.60982 11.121C7.5821 12.065 8.87711 12.586 10.2546 12.586C11.6321 12.586 12.9271 12.065 13.8994 11.121L16.0873 8.99999C17.052 8.06128 17.5938 6.78991 17.5938 5.46449C17.5938 4.13908 17.052 2.86771 16.0873 1.92899C15.1197 0.992799 13.8087 0.467041 12.442 0.467041C11.0752 0.467041 9.76429 0.992799 8.79669 1.92899Z" fill="#D61A6A"/>
</svg>
