<svg width="14" height="18" viewBox="0 0 14 18" fill="#D61A6A" xmlns="http://www.w3.org/2000/svg">
<path d="M6.67969 15.1201V13.6801C7.25371 13.632 7.79182 13.3889 8.19923 12.9938C8.60663 12.5987 8.85721 12.0768 8.90681 11.52H10.3916C10.3436 12.4598 9.93709 13.3487 9.25111 14.014C8.56513 14.6793 7.64863 15.0735 6.67969 15.1201Z" fill="#D61A6A"/>
<path d="M6.68137 18C4.91003 17.9979 3.21185 17.3145 1.95932 16.0997C0.706783 14.8849 0.00216102 13.2379 0 11.5199C0.0399555 10.2568 0.422511 9.02621 1.10911 7.95221L6.05258 0.314299C6.12398 0.217104 6.2183 0.137868 6.32768 0.0831964C6.43706 0.0285246 6.55832 0 6.68137 0C6.80442 0 6.92569 0.0285246 7.03507 0.0831964C7.14444 0.137868 7.23876 0.217104 7.31016 0.314299L12.2321 7.91477C12.9302 8.99872 13.3203 10.2425 13.3627 11.5199C13.3606 13.2379 12.656 14.8849 11.4034 16.0997C10.1509 17.3145 8.45272 17.9979 6.68137 18ZM6.68137 2.05025L2.38896 8.68014C1.83589 9.53338 1.52404 10.5127 1.48475 11.5199C1.48475 12.8566 2.03225 14.1386 3.00681 15.0838C3.98136 16.029 5.30314 16.56 6.68137 16.56C8.0596 16.56 9.38138 16.029 10.3559 15.0838C11.3305 14.1386 11.878 12.8566 11.878 11.5199C11.8356 10.4987 11.516 9.50641 10.9515 8.64342L6.68137 2.05025Z" fill="#D61A6A"/>
</svg>
