<svg width="20" height="19" viewBox="0 0 20 19" fill="#D61A6A" xmlns="http://www.w3.org/2000/svg">
<path d="M17.1011 11.998C17.0062 12.063 15.039 14.081 15.039 15.498C15.039 16.992 16.0175 17.946 17.1011 17.998C18.0352 18.042 19.1632 17.107 19.1632 15.498C19.1632 13.998 17.196 12.063 17.1011 11.998ZM0 10.998C0 11.532 0.21446 12.034 0.604199 12.412L6.36368 17.998C6.75342 18.376 7.27101 18.584 7.82159 18.584C8.37217 18.584 8.88976 18.376 9.2795 17.998L16.4969 10.998L15.7679 10.291L7.82159 2.58402L5.45738 0.291016L3.99947 1.70502L6.36368 3.99802L0.604199 9.58401C0.21446 9.96202 0 10.464 0 10.998ZM7.82159 5.41202L13.5811 10.998L7.82159 16.584H7.82262L7.82159 17.584V16.584L2.06211 10.998L7.82159 5.41202Z" fill="#D61A6A"/>
</svg>
